<?xml version="1.0" encoding="UTF-8"?>
<svg version="1.1" xmlns="http://www.w3.org/2000/svg" width="740" height="740">
<path d="M0 0 C3.70828723 0.00460316 7.41655718 -0.00249735 11.12484074 -0.00795984 C18.35514168 -0.01677269 25.5854007 -0.01496863 32.81570317 -0.00913456 C38.69979775 -0.00458644 44.58388073 -0.00401864 50.46797657 -0.00618219 C51.31083302 -0.00648866 52.15368947 -0.00679513 53.02208703 -0.00711088 C54.73521039 -0.00775044 56.44833375 -0.00839886 58.16145711 -0.00905606 C74.15957981 -0.01473541 90.15767945 -0.00823894 106.15579836 0.00254467 C119.83663752 0.01148126 133.51744273 0.00992257 147.19828129 0.00070715 C163.14888484 -0.01003241 179.09946827 -0.01418973 195.05007493 -0.00806832 C196.75569017 -0.00743133 198.46130542 -0.00680259 200.16692066 -0.00618219 C201.00576284 -0.00587364 201.84460502 -0.00556509 202.70886666 -0.00524719 C208.57630087 -0.00353151 214.44372216 -0.00641074 220.31115437 -0.0111413 C227.47513025 -0.01679118 234.6390624 -0.01514827 241.80303337 -0.00457981 C245.44724874 0.00062178 249.0913916 0.00282972 252.73560619 -0.00387812 C294.27117485 -0.0737962 294.27117485 -0.0737962 312.80863285 5.57394934 C313.8141016 5.85689856 314.81957035 6.13984777 315.85550785 6.43137121 C322.77535185 8.44742395 329.2039958 11.11951052 335.68363285 14.26144934 C336.8231641 14.8093009 337.96269535 15.35715246 339.13675785 15.92160559 C344.40876925 18.56497443 349.60566109 21.26082966 354.68363285 24.26144934 C354.68363285 24.92144934 354.68363285 25.58144934 354.68363285 26.26144934 C355.69490238 26.58629309 355.69490238 26.58629309 356.7266016 26.91769934 C360.61070833 28.68273595 363.67362754 31.11302595 366.99613285 33.76144934 C367.64130863 34.26031652 368.28648441 34.75918371 368.95121098 35.27316809 C370.57043592 36.55141339 372.13252897 37.90134742 373.68363285 39.26144934 C373.68363285 39.92144934 373.68363285 40.58144934 373.68363285 41.26144934 C374.58082035 41.66363684 374.58082035 41.66363684 375.49613285 42.07394934 C377.68211139 43.2606234 379.09695879 44.35744046 380.68363285 46.26144934 C380.68363285 46.92144934 380.68363285 47.58144934 380.68363285 48.26144934 C381.58710453 48.65106848 381.58710453 48.65106848 382.50882816 49.04855871 C384.86108617 50.36041522 385.9090371 51.50563189 387.48050785 53.66769934 C387.96390629 54.3289884 388.44730473 54.99027746 388.9453516 55.67160559 C389.43648441 56.36125402 389.92761723 57.05090246 390.43363285 57.76144934 C390.94023441 58.45109777 391.44683598 59.14074621 391.9687891 59.85129309 C395.68363285 64.98799078 395.68363285 64.98799078 395.68363285 67.26144934 C396.34363285 67.26144934 397.00363285 67.26144934 397.68363285 67.26144934 C417.89359096 101.3113334 421.85044491 134.43109658 421.81435752 173.40127838 C421.81207139 177.06120841 421.81559886 180.72113389 421.81833744 184.38106298 C421.8227602 191.53009107 421.82183426 198.67910861 421.8189248 205.82813709 C421.81665679 211.64425774 421.81636428 217.46037545 421.81744862 223.27649641 C421.81767847 224.52312086 421.81767847 224.52312086 421.81791296 225.79492964 C421.81823272 227.48382167 421.81855693 229.17271369 421.81888555 230.86160571 C421.82173015 246.66070521 421.81846944 262.45979889 421.81308518 278.25889743 C421.8086189 291.78245606 421.80939361 305.3060061 421.81400394 318.82956457 C421.81936918 334.57461709 421.82145469 350.31966452 421.81839168 366.06471783 C421.81807317 367.74734072 421.8177588 369.42996361 421.81744862 371.1125865 C421.81729434 371.94023589 421.81714006 372.76788528 421.81698111 373.62061496 C421.81612174 379.42171585 421.81756632 385.22281348 421.81992817 391.02391386 C421.8227481 398.10508469 421.82194202 405.18624445 421.81664743 412.26741403 C421.81403968 415.87258683 421.812955 419.47774126 421.81629658 423.08291388 C421.84922991 461.94480956 421.84922991 461.94480956 418.87113285 475.57394934 C418.69445072 476.41369299 418.51776859 477.25343664 418.33573246 478.11862707 C414.53112808 495.62655595 406.76992057 511.88465473 397.68363285 527.26144934 C397.02363285 527.26144934 396.36363285 527.26144934 395.68363285 527.26144934 C395.44257816 527.9743009 395.20152348 528.68715246 394.9531641 529.42160559 C393.49712142 532.67866105 391.67013057 534.97492683 389.37113285 537.69894934 C388.56675785 538.65801184 387.76238285 539.61707434 386.93363285 540.60519934 C386.19113285 541.48176184 385.44863285 542.35832434 384.68363285 543.26144934 C383.74511107 544.40644591 382.80735771 545.55207389 381.87113285 546.69894934 C379.89382344 549.01522608 377.95171913 551.22799267 375.68363285 553.26144934 C375.02363285 553.26144934 374.36363285 553.26144934 373.68363285 553.26144934 C373.35363285 554.25144934 373.02363285 555.24144934 372.68363285 556.26144934 C371.13309574 557.70358801 371.13309574 557.70358801 369.1562891 559.17941809 C368.44666019 559.71115637 367.73703129 560.24289465 367.00589848 560.79074621 C366.26017582 561.33795324 365.51445316 561.88516027 364.74613285 562.44894934 C364.00427738 563.00775793 363.26242191 563.56656652 362.49808598 564.14230871 C356.95057424 568.26144934 356.95057424 568.26144934 354.68363285 568.26144934 C354.68363285 568.92144934 354.68363285 569.58144934 354.68363285 570.26144934 C337.36503015 579.63247409 320.99170573 587.10660396 301.68363285 591.26144934 C300.91795376 591.43154945 300.15227467 591.60164956 299.36339319 591.77690423 C291.83191072 593.30977714 284.5675958 593.54794771 276.89814091 593.52887487 C275.53417758 593.53261906 274.1702164 593.53722362 272.80625856 593.54260552 C269.08630678 593.55475685 265.36644547 593.5545844 261.64647841 593.55221677 C257.62304207 593.55180658 253.59963396 593.5628672 249.57621098 593.57233191 C241.7025815 593.58890142 233.82898198 593.59443968 225.95533653 593.59555666 C219.54797533 593.5965094 213.14062396 593.60063094 206.73326588 593.60695791 C188.53257001 593.62456203 170.33189767 593.63379849 152.13119324 593.63229696 C151.15124733 593.63221705 150.17130143 593.63213714 149.16166019 593.63205481 C148.18050513 593.63197304 147.19935006 593.63189128 146.18846302 593.63180704 C130.30858633 593.63099517 114.42880473 593.65011011 98.54895552 593.67833154 C82.20964982 593.70713817 65.87039037 593.72086745 49.53105867 593.71914399 C40.37159576 593.71848259 31.21223244 593.72386378 22.05279255 593.74550009 C14.24986622 593.76381495 6.44708457 593.76797571 -1.35585408 593.75448124 C-5.32815609 593.74800209 -9.3001814 593.74764814 -13.27245617 593.76518774 C-29.96601689 593.8343078 -46.0415005 593.43969645 -62.31636715 589.26144934 C-63.57183535 588.93997112 -64.82730354 588.61849291 -66.12081623 588.28727293 C-86.97822969 582.59276981 -108.63183557 570.02544408 -124.31636715 555.26144934 C-124.31636715 554.60144934 -124.31636715 553.94144934 -124.31636715 553.26144934 C-125.30636715 552.93144934 -126.29636715 552.60144934 -127.31636715 552.26144934 C-129.50386715 550.32394934 -129.50386715 550.32394934 -131.31636715 548.26144934 C-131.31636715 547.60144934 -131.31636715 546.94144934 -131.31636715 546.26144934 C-132.30636715 545.93144934 -133.29636715 545.60144934 -134.31636715 545.26144934 C-135.75850582 543.71091223 -135.75850582 543.71091223 -137.2343359 541.73410559 C-137.76607418 541.02447668 -138.29781246 540.31484777 -138.84566402 539.58371496 C-139.39287106 538.83799231 -139.94007809 538.09226965 -140.50386715 537.32394934 C-141.06267574 536.58209387 -141.62148434 535.8402384 -142.19722652 535.07590246 C-146.31636715 529.52839073 -146.31636715 529.52839073 -146.31636715 527.26144934 C-146.97636715 527.26144934 -147.63636715 527.26144934 -148.31636715 527.26144934 C-153.89031341 517.80152748 -158.68598435 508.64911398 -162.31636715 498.26144934 C-162.80531536 496.97034946 -163.29633274 495.68003197 -163.7890234 494.39035559 C-167.7474648 483.83701087 -170.5272335 473.28870337 -171.45253658 462.0316062 C-171.53481746 461.04663658 -171.61709835 460.06166697 -171.70187259 459.04684979 C-172.65390506 446.42185226 -172.60132382 433.78214071 -172.57781649 421.12882721 C-172.57321253 417.44710593 -172.58031425 413.76540203 -172.58577633 410.08368444 C-172.59458863 402.90518535 -172.59278529 395.72672848 -172.58695105 388.54822784 C-172.58240236 382.7056178 -172.58183537 376.86301946 -172.58399868 371.02040815 C-172.58430515 370.18339115 -172.58461161 369.34637414 -172.58492737 368.48399298 C-172.58556693 366.78270935 -172.58621535 365.08142572 -172.58687255 363.3801421 C-172.59255183 347.49262821 -172.58605571 331.60513755 -172.57527182 315.71762747 C-172.56633686 302.13432276 -172.56789258 288.55105226 -172.57710934 274.96774817 C-172.58785183 259.12883635 -172.59200445 243.28994479 -172.58588481 227.45102984 C-172.58524782 225.75691148 -172.58461908 224.06279312 -172.58399868 222.36867476 C-172.58369013 221.53550151 -172.58338158 220.70232826 -172.58306368 219.84390734 C-172.58134875 214.01902189 -172.5842256 208.19414946 -172.58895779 202.36926603 C-172.59461103 195.25545762 -172.59295795 188.14169325 -172.5823963 181.02788978 C-172.57719886 177.40987881 -172.5749793 173.79194081 -172.5816946 170.17393064 C-172.6032682 157.42039508 -172.56743522 144.71569455 -171.44472408 132.00328588 C-171.36987105 131.15301555 -171.29501801 130.30274522 -171.2178967 129.42670912 C-170.30521164 120.43825191 -168.00441189 111.86399311 -165.31636715 103.26144934 C-164.94640621 102.04199621 -164.57644527 100.82254309 -164.1952734 99.56613684 C-159.96228039 86.70604043 -153.29147678 74.97288548 -145.87886715 63.69894934 C-145.45387936 63.0493424 -145.02889156 62.39973547 -144.59102535 61.73044348 C-143.55597571 60.20097933 -142.44308785 58.72469531 -141.31636715 57.26144934 C-140.65636715 57.26144934 -139.99636715 57.26144934 -139.31636715 57.26144934 C-139.06886715 56.70457434 -138.82136715 56.14769934 -138.56636715 55.57394934 C-137.08711897 52.8373402 -135.38169276 50.58494064 -133.31636715 48.26144934 C-132.65636715 48.26144934 -131.99636715 48.26144934 -131.31636715 48.26144934 C-131.04824215 47.66332434 -130.78011715 47.06519934 -130.50386715 46.44894934 C-129.31719309 44.2629708 -128.22037602 42.8481234 -126.31636715 41.26144934 C-125.65636715 41.26144934 -124.99636715 41.26144934 -124.31636715 41.26144934 C-123.65636715 39.94144934 -122.99636715 38.62144934 -122.31636715 37.26144934 C-121.65636715 37.26144934 -120.99636715 37.26144934 -120.31636715 37.26144934 C-120.31636715 36.60144934 -120.31636715 35.94144934 -120.31636715 35.26144934 C-118.66636715 34.60144934 -117.01636715 33.94144934 -115.31636715 33.26144934 C-115.31636715 32.60144934 -115.31636715 31.94144934 -115.31636715 31.26144934 C-113.26153094 29.76895735 -111.2207668 28.4093141 -109.06636715 27.07394934 C-108.1079089 26.47284338 -108.1079089 26.47284338 -107.13008785 25.85959387 C-105.81720361 25.04020281 -104.50183524 24.22477888 -103.18404293 23.41330481 C-101.55273045 22.40722215 -99.93167885 21.3845401 -98.3124609 20.35910559 C-85.85786076 12.72005321 -72.39041244 7.94584581 -58.31636715 4.26144934 C-57.3033774 3.93731936 -56.29038765 3.61318937 -55.24670124 3.27923727 C-50.65115563 1.97130303 -46.03163043 1.55176286 -41.28258419 1.15262365 C-40.28467755 1.0683689 -39.28677091 0.98411414 -38.25862467 0.8973062 C-25.5193966 -0.07474401 -12.76852635 -0.02354614 0 0 Z M-55.31636715 62.26144934 C-56.23081191 62.60378859 -57.14525667 62.94612783 -58.08741188 63.298841 C-60.25574019 64.16207697 -62.26175854 65.1548311 -64.31636715 66.26144934 C-65.70855465 66.99814856 -65.70855465 66.99814856 -67.12886715 67.74973059 C-90.06891773 80.47794743 -104.71801215 99.94528419 -112.38667965 124.75754309 C-114.77598523 133.76261497 -115.60793892 142.0918597 -115.58379269 151.41538 C-115.5883238 152.70979372 -115.59285491 154.00420743 -115.59752333 155.3378458 C-115.60968288 158.90622778 -115.60950124 162.47451551 -115.60713458 166.04291344 C-115.6067246 169.90134654 -115.6177829 173.75975014 -115.62724972 177.61816931 C-115.64382322 185.16941467 -115.64935766 192.72062879 -115.65047447 200.27189082 C-115.65142692 206.41566722 -115.65554702 212.55943338 -115.66187572 218.70320654 C-115.67948012 236.15028236 -115.68871614 253.59733363 -115.68721478 271.04441839 C-115.68713486 271.98389993 -115.68705495 272.92338147 -115.68697262 273.89133215 C-115.68689086 274.83197104 -115.6868091 275.77260994 -115.68672486 276.74175304 C-115.68591274 291.97060255 -115.7050337 307.19935297 -115.73324935 322.42817384 C-115.76204162 338.09281628 -115.77578608 353.7574105 -115.7740618 369.42208004 C-115.77339996 378.20531511 -115.77880095 386.98844636 -115.8004179 395.77165747 C-115.81871365 403.25300104 -115.82290886 410.73419376 -115.80939905 418.21555012 C-115.80291071 422.02545648 -115.80260026 425.83507418 -115.82010555 429.6449523 C-115.94490825 458.61272091 -112.22411351 480.86009154 -94.31636715 504.26144934 C-93.83425777 504.90082434 -93.3521484 505.54019934 -92.85542965 506.19894934 C-78.83988637 523.69812476 -56.26327639 534.48472755 -34.31636715 537.26144934 C-24.76502247 537.93740081 -15.17654768 537.81807047 -5.60637808 537.78434801 C-1.75352567 537.77519339 2.09925787 537.78931812 5.95209599 537.8002677 C13.47555428 537.81794787 20.99885192 537.81426019 28.52231622 537.80261713 C34.64302676 537.79354138 40.76369264 537.7923766 46.884408 537.7967124 C48.19680156 537.7976318 48.19680156 537.7976318 49.53570813 537.79856977 C51.31374337 537.79984882 53.09177859 537.80114567 54.8698138 537.80246013 C71.49782458 537.81383516 88.1257468 537.80080073 104.75374305 537.77925867 C118.98595114 537.76139049 133.21802868 537.76449547 147.45023441 537.78293371 C164.02338683 537.80439502 180.59646186 537.81273681 197.16962624 537.80048466 C198.94070338 537.79921061 200.71178054 537.79795313 202.4828577 537.7967124 C203.35400217 537.7960953 204.22514664 537.79547819 205.12268943 537.79484239 C211.22793306 537.79140523 217.33312712 537.79718236 223.43836308 537.80663061 C230.89025088 537.81791067 238.34197041 537.81468548 245.79383922 537.79350764 C249.58758748 537.78307727 253.38105635 537.7787362 257.17480183 537.79210424 C286.09099206 537.88554716 308.32507007 534.13644708 331.68363285 516.26144934 C332.32300785 515.77933996 332.96238285 515.29723059 333.62113285 514.80051184 C351.12030828 500.78496856 361.90691106 478.20835858 364.68363285 456.26144934 C365.35958432 446.71010466 365.24025399 437.12162986 365.20653152 427.55146027 C365.19737691 423.69860786 365.21150164 419.84582432 365.22245121 415.9929862 C365.24013139 408.46952791 365.2364437 400.94623026 365.22480065 393.42276597 C365.21572489 387.30205543 365.21456011 381.18138955 365.21889591 375.06067419 C365.21981531 373.74828063 365.21981531 373.74828063 365.22075328 372.40937406 C365.22203233 370.63133882 365.22332919 368.8533036 365.22464365 367.07526839 C365.23601868 350.44725761 365.22298424 333.81933539 365.20144218 317.19133914 C365.18357401 302.95913104 365.18667898 288.72705351 365.20511723 274.49484777 C365.22657853 257.92169535 365.23492033 241.34862033 365.22266817 224.77545595 C365.22139413 223.00437881 365.22013664 221.23330165 365.21889591 219.46222448 C365.21827881 218.59108002 365.21766171 217.71993555 365.21702591 216.82239276 C365.21358875 210.71714913 365.21936587 204.61195506 365.22881413 198.50671911 C365.24009418 191.05483131 365.23686899 183.60311178 365.21569115 176.15124297 C365.20526078 172.35749471 365.20091972 168.56402584 365.21428776 164.77028036 C365.31572977 133.35285255 360.38031717 106.59564027 337.68363285 83.26144934 C319.63515663 65.70607026 297.13840819 56.75594837 271.9791193 56.86704016 C270.66172455 56.86094905 269.3443298 56.85485795 267.987014 56.84858227 C264.36836284 56.83232869 260.74993162 56.83447053 257.13125694 56.83995724 C253.21355926 56.84264567 249.29591784 56.82806181 245.37824345 56.81586218 C237.71710645 56.79488132 230.05604524 56.79026312 222.3948829 56.79205006 C216.16202392 56.79336152 209.92918844 56.78953404 203.69633389 56.782125 C201.89585724 56.78002563 200.09538059 56.77792803 198.29490393 56.77583218 C197.3985389 56.77478865 196.50217387 56.77374512 195.57864626 56.77266997 C178.65262139 56.75379687 161.72663993 56.75480866 144.8006089 56.7616393 C129.34882928 56.76721134 113.89721563 56.74639855 98.44547478 56.71327883 C82.54568758 56.67946568 66.64597971 56.66438305 50.74615592 56.66899586 C41.83327872 56.67123301 32.92055485 56.66610843 24.00770855 56.64110327 C16.41844443 56.61999124 8.82941772 56.61659548 1.24014352 56.63540286 C-2.62451926 56.64450056 -6.48874061 56.6458898 -10.35336781 56.62504721 C-25.94093064 56.5464369 -40.56174101 56.66039451 -55.31636715 62.26144934 Z " fill="#000000" transform="translate(245.31636714935303,72.73855066299438)"/>
<path d="M0 0 C0.69029297 0.18079102 1.38058594 0.36158203 2.09179688 0.54785156 C11.12337442 2.94373949 19.63273854 5.78519467 28 10 C29.52947266 10.74636719 29.52947266 10.74636719 31.08984375 11.5078125 C36.50061464 14.16972451 41.80852785 16.93231191 47 20 C47 20.66 47 21.32 47 22 C47.67417969 22.2165625 48.34835937 22.433125 49.04296875 22.65625 C52.92707548 24.42128661 55.98999469 26.85157661 59.3125 29.5 C59.95767578 29.99886719 60.60285156 30.49773437 61.26757812 31.01171875 C62.88680307 32.28996405 64.44889612 33.63989809 66 35 C66 35.66 66 36.32 66 37 C66.99 37.33 67.98 37.66 69 38 C71.1875 39.9375 71.1875 39.9375 73 42 C73 42.66 73 43.32 73 44 C73.99 44.33 74.98 44.66 76 45 C77.44213867 46.55053711 77.44213867 46.55053711 78.91796875 48.52734375 C79.44970703 49.23697266 79.98144531 49.94660156 80.52929688 50.67773438 C81.07650391 51.42345703 81.62371094 52.16917969 82.1875 52.9375 C82.74630859 53.67935547 83.30511719 54.42121094 83.88085938 55.18554688 C88 60.73305861 88 60.73305861 88 63 C88.66 63 89.32 63 90 63 C95.57394626 72.45992186 100.36961721 81.61233536 104 92 C104.48921319 93.25925844 104.978824 94.51836246 105.46875 95.77734375 C107.16838079 100.29430315 108.41769831 104.89352155 109.625 109.5625 C109.8415625 110.37396484 110.058125 111.18542969 110.28125 112.02148438 C112.22121351 119.44004853 113.15884092 126.61310304 113.23828125 134.29296875 C113.24798447 135.07296234 113.25768768 135.85295593 113.26768494 136.65658569 C113.29252067 139.16694318 113.30519717 141.67703209 113.3125 144.1875 C113.31511841 145.0418161 113.31773682 145.8961322 113.32043457 146.77633667 C113.3246588 159.61211529 112.59433681 171.60924812 109 184 C108.69964844 185.17046875 108.39929688 186.3409375 108.08984375 187.546875 C102.55753414 207.56856693 91.27809296 225.62652054 78.11328125 241.45703125 C76.69816417 243.15988008 75.30876368 244.88441453 73.9453125 246.62890625 C72.24466026 248.7017896 70.59707303 250.39402696 68.5625 252.125 C67.87285156 252.7128125 67.18320312 253.300625 66.47265625 253.90625 C65.65667969 254.5971875 64.84070313 255.288125 64 256 C62.95634991 256.90546528 61.91342865 257.81177104 60.87109375 258.71875 C45.52172814 272 45.52172814 272 40 272 C40 272.66 40 273.32 40 274 C27.93454023 280.01935355 15.99544675 285.34141645 3 289 C2.2898877 289.21027832 1.57977539 289.42055664 0.84814453 289.63720703 C-21.86583209 296.13205704 -50.40774917 295.69880915 -73 289 C-73.83950195 288.76394043 -74.67900391 288.52788086 -75.54394531 288.28466797 C-96.6837716 282.2463861 -114.60058299 272.13127294 -131.45703125 258.11328125 C-133.15988008 256.69816417 -134.88441453 255.30876368 -136.62890625 253.9453125 C-139.41226086 251.66176951 -141.5990401 249.18221796 -143.921875 246.4453125 C-145.44929206 244.64801347 -147.00579913 242.8753337 -148.578125 241.1171875 C-164.06298636 223.64814012 -173.69734445 202.69271591 -179.6875 180.25 C-179.90229004 179.44530273 -180.11708008 178.64060547 -180.33837891 177.81152344 C-180.53995605 177.03325195 -180.7415332 176.25498047 -180.94921875 175.453125 C-181.12799561 174.76379883 -181.30677246 174.07447266 -181.4909668 173.36425781 C-182.75538039 167.49155696 -183.17629389 161.69963765 -183.23828125 155.70703125 C-183.24798447 154.92703766 -183.25768768 154.14704407 -183.26768494 153.34341431 C-183.29252067 150.83305682 -183.30519717 148.32296791 -183.3125 145.8125 C-183.31511841 144.9581839 -183.31773682 144.1038678 -183.32043457 143.22366333 C-183.32465631 130.39546569 -182.61502999 118.37998066 -179 106 C-178.67644531 104.783125 -178.35289062 103.56625 -178.01953125 102.3125 C-176.00693496 95.21501757 -173.24608986 88.61379116 -170 82 C-169.50113281 80.97519531 -169.00226563 79.95039063 -168.48828125 78.89453125 C-165.82353113 73.49119663 -163.06498067 68.18689036 -160 63 C-159.34 63 -158.68 63 -158 63 C-157.7834375 62.32582031 -157.566875 61.65164063 -157.34375 60.95703125 C-155.57871339 57.07292452 -153.14842339 54.01000531 -150.5 50.6875 C-150.00113281 50.04232422 -149.50226563 49.39714844 -148.98828125 48.73242188 C-147.71003595 47.11319693 -146.36010191 45.55110388 -145 44 C-144.34 44 -143.68 44 -143 44 C-142.67 43.01 -142.34 42.02 -142 41 C-140.0625 38.8125 -140.0625 38.8125 -138 37 C-137.34 37 -136.68 37 -136 37 C-135.74025391 36.39768555 -135.48050781 35.79537109 -135.21289062 35.17480469 C-133.90103411 32.82254668 -132.75581744 31.77459575 -130.59375 30.203125 C-129.93246094 29.71972656 -129.27117187 29.23632812 -128.58984375 28.73828125 C-127.90019531 28.24714844 -127.21054687 27.75601563 -126.5 27.25 C-125.81035156 26.74339844 -125.12070312 26.23679688 -124.41015625 25.71484375 C-119.27345856 22 -119.27345856 22 -117 22 C-117 21.34 -117 20.68 -117 20 C-107.54007814 14.42605374 -98.38766464 9.63038279 -88 6 C-86.71022868 5.51097998 -85.42121186 5.01996704 -84.1328125 4.52734375 C-57.75681812 -5.3683396 -27.31538151 -7.28009067 0 0 Z M-67 58 C-67.88042969 58.32226562 -68.76085937 58.64453125 -69.66796875 58.9765625 C-71.86372957 59.87041204 -73.91170662 60.87879451 -76 62 C-77.35738281 62.70189453 -77.35738281 62.70189453 -78.7421875 63.41796875 C-100.84574908 75.50316281 -116.71745977 94.88492173 -124 119 C-124.48146484 120.56234375 -124.48146484 120.56234375 -124.97265625 122.15625 C-131.2138658 146.07604847 -126.58544974 170.94231634 -114.625 192.1875 C-109.9711965 199.90009409 -105.10061584 206.4429963 -98 212 C-97.24203125 212.77859375 -96.4840625 213.5571875 -95.703125 214.359375 C-80.05534106 229.64536047 -57.11725649 237.41392196 -35.5 237.375 C-34.55092773 237.37338867 -33.60185547 237.37177734 -32.62402344 237.37011719 C-10.98996267 237.0012315 7.00862449 229.0025465 24 216 C24.9590625 215.27683594 24.9590625 215.27683594 25.9375 214.5390625 C42.93643366 200.92417582 54.30780953 178.47462215 57 157 C58.4879541 138.63047225 56.9244011 120.3988995 48 104 C47.50886719 103.05125 47.01773438 102.1025 46.51171875 101.125 C34.50784181 79.12266709 15.00724666 63.18249593 -9 56 C-9.86802246 55.73960937 -10.73604492 55.47921875 -11.63037109 55.2109375 C-19.35739112 53.06631605 -26.62392356 52.45790365 -34.625 52.5 C-35.84614502 52.50354492 -37.06729004 52.50708984 -38.32543945 52.51074219 C-48.56641571 52.69715051 -57.45245675 54.38967217 -67 58 Z " fill="#000000" transform="translate(405,225)"/>
<path d="M0 0 C2.22797569 1.19897249 4.00384838 2.41331538 6 4 C6 4.66 6 5.32 6 6 C6.99 6.33 7.98 6.66 9 7 C14.22013394 14.90929385 16.2445979 22.87744963 14.60546875 32.2578125 C12.52615377 39.95798541 7.22933388 46.29800757 0.4375 50.4375 C-7.55395576 54.06997989 -14.01733058 55.14356824 -22.4375 52.4375 C-30.77278198 49.18582406 -36.20082667 44.03671281 -40 36 C-43.21677889 28.60140856 -42.6816137 21.53060337 -39.92578125 14.0859375 C-38.57952166 11.05259311 -37.0682522 8.6019947 -35 6 C-34.34 6 -33.68 6 -33 6 C-32.67 5.01 -32.34 4.02 -32 3 C-29.8203125 1.6484375 -29.8203125 1.6484375 -27.125 0.375 C-25.79855469 -0.26308594 -25.79855469 -0.26308594 -24.4453125 -0.9140625 C-16.26707135 -4.54593317 -8.0370577 -3.62815748 0 0 Z " fill="#010101" transform="translate(550,178)"/>
<path d="M0 0 C0.99 0 1.98 0 3 0 C5.03282229 5.99754661 6.50330541 12.03745584 7.6875 18.25 C7.88436401 19.25933594 7.88436401 19.25933594 8.08520508 20.2890625 C8.81335598 24.24285843 9.13099176 27.98291932 9 32 C8.34 32 7.68 32 7 32 C7 138.92 7 245.84 7 356 C6.67 356 6.34 356 6 356 C5.99864347 355.30840263 5.99728694 354.61680525 5.99588931 353.90425038 C5.91520042 312.89441031 5.82422991 271.88460423 5.71994839 230.87481703 C5.70742985 225.94828315 5.69499703 221.02174907 5.68261719 216.09521484 C5.68015119 215.11445031 5.6776852 214.13368577 5.67514448 213.1232011 C5.63544479 197.25276141 5.60268511 181.38231463 5.57250018 165.51185432 C5.54136181 149.22151632 5.50274221 132.93120838 5.45720994 116.64090419 C5.42935979 106.59280406 5.40731171 96.54472586 5.39273749 86.49659756 C5.38217735 79.60175858 5.36433585 72.70696212 5.34083296 65.81215522 C5.32749583 61.83708359 5.31730734 57.86207144 5.31578636 53.88697624 C5.3143201 50.24095282 5.30362091 46.59507236 5.28586559 42.94909295 C5.27878908 41.01938503 5.28133735 39.08964903 5.28433573 37.15993047 C5.22143654 27.30289409 3.94020572 17.95985457 1.375 8.4375 C0.56988305 5.4362472 0 3.11444207 0 0 Z " fill="#0B0B0B" transform="translate(657,177)"/>
<path d="M0 0 C1.32 0.66 2.64 1.32 4 2 C3.01 2.33 2.02 2.66 1 3 C1 3.66 1 4.32 1 5 C0.443125 5.226875 -0.11375 5.45375 -0.6875 5.6875 C-3.64691361 7.36716718 -5.62408786 9.56751852 -8 12 C-8.94875 12.763125 -9.8975 13.52625 -10.875 14.3125 C-14.72155925 17.43782939 -17.82476255 21.21413997 -21 25 C-21.66 23.68 -22.32 22.36 -23 21 C-22.38125 20.7525 -21.7625 20.505 -21.125 20.25 C-18.5927804 18.76045906 -18.19281342 17.62418952 -17 15 C-15.5 13.25 -15.5 13.25 -14 12 C-13.34 12 -12.68 12 -12 12 C-11.34 10.68 -10.68 9.36 -10 8 C-9.34 8 -8.68 8 -8 8 C-8 7.34 -8 6.68 -8 6 C-6.35 5.34 -4.7 4.68 -3 4 C-3 3.34 -3 2.68 -3 2 C-2.01 1.34 -1.02 0.68 0 0 Z " fill="#070707" transform="translate(133,102)"/>
<path d="M0 0 C0.66 0.33 1.32 0.66 2 1 C1.67373505 7.32278971 1.38495108 12.55464391 -2 18 C-2.33 18 -2.66 18 -3 18 C-3.21586845 12.06361776 -2.71249434 6.71248111 -1 1 C-0.67 0.67 -0.34 0.34 0 0 Z " fill="#060606" transform="translate(77,192)"/>
<path d="M0 0 C0.99 0 1.98 0 3 0 C4.25664978 2.90600261 5 4.79604584 5 8 C4.34 8 3.68 8 3 8 C3.33 10.31 3.66 12.62 4 15 C1.27893306 12.27893306 1.39344428 10.15223689 0.875 6.375 C0.70742188 5.18648437 0.53984375 3.99796875 0.3671875 2.7734375 C0.24601563 1.85820312 0.12484375 0.94296875 0 0 Z " fill="#0C0C0C" transform="translate(657,177)"/>
<path d="M0 0 C0 0.33 0 0.66 0 1 C-1.134375 1.12375 -2.26875 1.2475 -3.4375 1.375 C-5.2009375 1.684375 -5.2009375 1.684375 -7 2 C-7.33 2.66 -7.66 3.32 -8 4 C-9.32 3.67 -10.64 3.34 -12 3 C-12 2.34 -12 1.68 -12 1 C-8.0186217 -0.3271261 -4.14954773 -0.06915913 0 0 Z " fill="#0B0B0B" transform="translate(360,276)"/>
</svg>
